<mxfile host="app.diagrams.net" modified="2022-03-28T16:13:37.283Z" agent="5.0 (X11)" etag="AAHihHpvxk-kMNjEBmEE" version="17.2.4" type="github">
  <diagram id="GrOjJD55Q7OjP2oj9_tJ" name="Page-1">
    <mxGraphModel dx="1422" dy="715" grid="1" gridSize="10" guides="1" tooltips="1" connect="1" arrows="1" fold="1" page="1" pageScale="1" pageWidth="850" pageHeight="1100" math="0" shadow="0">
      <root>
        <mxCell id="0" />
        <mxCell id="1" parent="0" />
        <mxCell id="AcUVQsC6h8WxLY-xwRK1-1" value="&lt;div&gt;Sistema&lt;/div&gt;&lt;div&gt;de&lt;/div&gt;&lt;div&gt;ejercicios&lt;/div&gt;&lt;div&gt;(1.0)&lt;br&gt;&lt;/div&gt;" style="ellipse;shape=doubleEllipse;html=1;dashed=0;whitespace=wrap;aspect=fixed;" vertex="1" parent="1">
          <mxGeometry x="400" y="260" width="90" height="90" as="geometry" />
        </mxCell>
        <mxCell id="AcUVQsC6h8WxLY-xwRK1-2" value="&lt;div&gt;Maestro&lt;/div&gt;&lt;div&gt;(4.0)&lt;/div&gt;" style="html=1;dashed=0;whitespace=wrap;" vertex="1" parent="1">
          <mxGeometry x="620" y="280" width="100" height="50" as="geometry" />
        </mxCell>
        <mxCell id="AcUVQsC6h8WxLY-xwRK1-3" value="&lt;div&gt;AnÃ³nimo&lt;/div&gt;&lt;div&gt;(2.0)&lt;/div&gt;" style="html=1;dashed=0;whitespace=wrap;" vertex="1" parent="1">
          <mxGeometry x="390" y="450" width="100" height="50" as="geometry" />
        </mxCell>
        <mxCell id="AcUVQsC6h8WxLY-xwRK1-4" value="&lt;div&gt;Alumno&lt;/div&gt;&lt;div&gt;(3.0)&lt;/div&gt;" style="html=1;dashed=0;whitespace=wrap;" vertex="1" parent="1">
          <mxGeometry x="170" y="280" width="100" height="50" as="geometry" />
        </mxCell>
        <mxCell id="AcUVQsC6h8WxLY-xwRK1-5" value="" style="endArrow=classic;html=1;rounded=0;entryX=0;entryY=0;entryDx=0;entryDy=0;" edge="1" parent="1" target="AcUVQsC6h8WxLY-xwRK1-2">
          <mxGeometry width="50" height="50" relative="1" as="geometry">
            <mxPoint x="490" y="290" as="sourcePoint" />
            <mxPoint x="540" y="240" as="targetPoint" />
            <Array as="points">
              <mxPoint x="550" y="270" />
            </Array>
          </mxGeometry>
        </mxCell>
        <mxCell id="AcUVQsC6h8WxLY-xwRK1-6" value="" style="endArrow=classic;html=1;rounded=0;entryX=0.089;entryY=0.789;entryDx=0;entryDy=0;entryPerimeter=0;exitX=1;exitY=0.75;exitDx=0;exitDy=0;" edge="1" parent="1" source="AcUVQsC6h8WxLY-xwRK1-4" target="AcUVQsC6h8WxLY-xwRK1-1">
          <mxGeometry width="50" height="50" relative="1" as="geometry">
            <mxPoint x="270" y="330" as="sourcePoint" />
            <mxPoint x="400" y="320" as="targetPoint" />
            <Array as="points">
              <mxPoint x="330" y="340" />
            </Array>
          </mxGeometry>
        </mxCell>
        <mxCell id="AcUVQsC6h8WxLY-xwRK1-9" value="" style="endArrow=classic;html=1;rounded=0;entryX=0.944;entryY=0.789;entryDx=0;entryDy=0;entryPerimeter=0;exitX=0;exitY=0.75;exitDx=0;exitDy=0;" edge="1" parent="1" source="AcUVQsC6h8WxLY-xwRK1-2" target="AcUVQsC6h8WxLY-xwRK1-1">
          <mxGeometry width="50" height="50" relative="1" as="geometry">
            <mxPoint x="400" y="390" as="sourcePoint" />
            <mxPoint x="450" y="340" as="targetPoint" />
            <Array as="points">
              <mxPoint x="560" y="340" />
            </Array>
          </mxGeometry>
        </mxCell>
        <mxCell id="AcUVQsC6h8WxLY-xwRK1-10" value="" style="endArrow=classic;html=1;rounded=0;entryX=1;entryY=0;entryDx=0;entryDy=0;exitX=0.1;exitY=0.233;exitDx=0;exitDy=0;exitPerimeter=0;" edge="1" parent="1" source="AcUVQsC6h8WxLY-xwRK1-1" target="AcUVQsC6h8WxLY-xwRK1-4">
          <mxGeometry width="50" height="50" relative="1" as="geometry">
            <mxPoint x="400" y="390" as="sourcePoint" />
            <mxPoint x="450" y="340" as="targetPoint" />
            <Array as="points">
              <mxPoint x="340" y="270" />
            </Array>
          </mxGeometry>
        </mxCell>
        <mxCell id="AcUVQsC6h8WxLY-xwRK1-11" value="" style="endArrow=classic;html=1;rounded=0;entryX=0.222;entryY=0.889;entryDx=0;entryDy=0;entryPerimeter=0;exitX=0.25;exitY=0;exitDx=0;exitDy=0;" edge="1" parent="1" source="AcUVQsC6h8WxLY-xwRK1-3" target="AcUVQsC6h8WxLY-xwRK1-1">
          <mxGeometry width="50" height="50" relative="1" as="geometry">
            <mxPoint x="400" y="390" as="sourcePoint" />
            <mxPoint x="450" y="340" as="targetPoint" />
            <Array as="points">
              <mxPoint x="400" y="400" />
            </Array>
          </mxGeometry>
        </mxCell>
        <mxCell id="AcUVQsC6h8WxLY-xwRK1-12" value="" style="endArrow=classic;html=1;rounded=0;entryX=0.75;entryY=0;entryDx=0;entryDy=0;exitX=0.689;exitY=1;exitDx=0;exitDy=0;exitPerimeter=0;" edge="1" parent="1" source="AcUVQsC6h8WxLY-xwRK1-1" target="AcUVQsC6h8WxLY-xwRK1-3">
          <mxGeometry width="50" height="50" relative="1" as="geometry">
            <mxPoint x="400" y="390" as="sourcePoint" />
            <mxPoint x="450" y="340" as="targetPoint" />
            <Array as="points">
              <mxPoint x="470" y="400" />
            </Array>
          </mxGeometry>
        </mxCell>
        <mxCell id="AcUVQsC6h8WxLY-xwRK1-13" value="" style="endArrow=none;dashed=1;html=1;dashPattern=1 3;strokeWidth=2;rounded=0;" edge="1" parent="1">
          <mxGeometry width="50" height="50" relative="1" as="geometry">
            <mxPoint x="370" y="380" as="sourcePoint" />
            <mxPoint x="510" y="380" as="targetPoint" />
          </mxGeometry>
        </mxCell>
        <mxCell id="AcUVQsC6h8WxLY-xwRK1-14" value="" style="endArrow=none;dashed=1;html=1;dashPattern=1 3;strokeWidth=2;rounded=0;" edge="1" parent="1">
          <mxGeometry width="50" height="50" relative="1" as="geometry">
            <mxPoint x="530" y="370" as="sourcePoint" />
            <mxPoint x="530" y="240" as="targetPoint" />
          </mxGeometry>
        </mxCell>
        <mxCell id="AcUVQsC6h8WxLY-xwRK1-15" value="" style="endArrow=none;dashed=1;html=1;dashPattern=1 3;strokeWidth=2;rounded=0;" edge="1" parent="1">
          <mxGeometry width="50" height="50" relative="1" as="geometry">
            <mxPoint x="350" y="370" as="sourcePoint" />
            <mxPoint x="350" y="240" as="targetPoint" />
          </mxGeometry>
        </mxCell>
        <mxCell id="AcUVQsC6h8WxLY-xwRK1-16" value="Request" style="text;html=1;align=center;verticalAlign=middle;resizable=0;points=[];autosize=1;strokeColor=none;fillColor=none;" vertex="1" parent="1">
          <mxGeometry x="340" y="400" width="60" height="20" as="geometry" />
        </mxCell>
        <mxCell id="AcUVQsC6h8WxLY-xwRK1-17" value="Request" style="text;html=1;align=center;verticalAlign=middle;resizable=0;points=[];autosize=1;strokeColor=none;fillColor=none;" vertex="1" parent="1">
          <mxGeometry x="280" y="340" width="60" height="20" as="geometry" />
        </mxCell>
        <mxCell id="AcUVQsC6h8WxLY-xwRK1-18" value="Request" style="text;html=1;align=center;verticalAlign=middle;resizable=0;points=[];autosize=1;strokeColor=none;fillColor=none;" vertex="1" parent="1">
          <mxGeometry x="540" y="350" width="60" height="20" as="geometry" />
        </mxCell>
        <mxCell id="AcUVQsC6h8WxLY-xwRK1-19" value="Response" style="text;html=1;align=center;verticalAlign=middle;resizable=0;points=[];autosize=1;strokeColor=none;fillColor=none;" vertex="1" parent="1">
          <mxGeometry x="465" y="400" width="70" height="20" as="geometry" />
        </mxCell>
        <mxCell id="AcUVQsC6h8WxLY-xwRK1-20" value="Response" style="text;html=1;align=center;verticalAlign=middle;resizable=0;points=[];autosize=1;strokeColor=none;fillColor=none;" vertex="1" parent="1">
          <mxGeometry x="535" y="250" width="70" height="20" as="geometry" />
        </mxCell>
        <mxCell id="AcUVQsC6h8WxLY-xwRK1-21" value="Response" style="text;html=1;align=center;verticalAlign=middle;resizable=0;points=[];autosize=1;strokeColor=none;fillColor=none;" vertex="1" parent="1">
          <mxGeometry x="275" y="250" width="70" height="20" as="geometry" />
        </mxCell>
      </root>
    </mxGraphModel>
  </diagram>
</mxfile>
